<svg width="16" height="28" viewBox="0 0 16 28" fill="none" xmlns="http://www.w3.org/2000/svg">
<path d="M7.99995 0.199951C3.69917 0.199951 0.199951 3.69917 0.199951 7.99995C0.199951 10.1492 1.02964 12.7695 2.3937 14.9187C3.54448 16.7304 5.10776 18.2375 6.94995 18.6687L6.49995 20H7.21245C7.18901 20.0726 7.16323 20.1523 7.13745 20.225C6.99448 20.6351 6.79995 21.0898 6.79995 21.6875C6.79995 22.4515 7.1562 23.1007 7.4562 23.6937C7.7562 24.2867 7.99995 24.8257 7.99995 25.1C7.99995 26.2835 7.5312 26.825 7.5312 26.825C7.32495 27.0828 7.36479 27.4625 7.62495 27.6687C7.88276 27.875 8.26245 27.8351 8.4687 27.575C8.4687 27.575 9.19995 26.6351 9.19995 25.1C9.19995 24.3546 8.84136 23.7406 8.5437 23.15C8.24604 22.5593 7.99995 22.0109 7.99995 21.6875C7.99995 21.3453 8.10776 21.0617 8.26245 20.6187C8.32573 20.4382 8.39136 20.232 8.44995 20H9.49995L9.04995 18.6687C10.8921 18.2375 12.4554 16.7304 13.6062 14.9187C14.9703 12.7695 15.8 10.1492 15.8 7.99995C15.8 3.69917 12.3007 0.199951 7.99995 0.199951ZM7.99995 1.39995C11.6515 1.39995 14.6 4.34839 14.6 7.99995C14.6 9.82573 13.8359 12.3054 12.5937 14.2625C11.3515 16.2195 9.67573 17.6 7.99995 17.6C6.32417 17.6 4.64839 16.2195 3.4062 14.2625C2.16401 12.3054 1.39995 9.82573 1.39995 7.99995C1.39995 4.34839 4.34839 1.39995 7.99995 1.39995Z" fill="black"/>
</svg>
