<svg width="24" height="16" viewBox="0 0 24 16" fill="none" xmlns="http://www.w3.org/2000/svg">
<path d="M10.9687 0.199951C6.03279 0.199951 3.32341 2.37495 1.98748 4.77495C0.651538 7.17495 0.599976 9.7437 0.599976 10.6437C0.599976 11.0703 0.780444 11.4664 1.04998 11.7312C1.31951 11.996 1.65935 12.139 2.00623 12.1812C2.70232 12.2656 3.50623 11.9281 3.82498 11.15V11.1312C4.65701 8.90229 5.21716 8.04917 5.88748 7.69995C6.55779 7.35073 7.66404 7.39995 9.65623 7.39995H14.3437C16.3359 7.39995 17.4422 7.35073 18.1125 7.69995C18.7828 8.04917 19.3429 8.90229 20.175 11.1312C20.4656 11.9281 21.2765 12.2656 21.975 12.1812C22.3242 12.139 22.6758 12.0125 22.95 11.75C23.2242 11.4875 23.4 11.075 23.4 10.6437C23.4 9.7437 23.3484 7.17495 22.0125 4.77495C20.6765 2.37495 17.9672 0.199951 13.0312 0.199951H10.9687ZM10.9687 1.39995H13.0312C17.6273 1.39995 19.8 3.26792 20.9625 5.3562C22.125 7.44448 22.2 9.79761 22.2 10.6437C22.2 10.7726 22.1625 10.8148 22.1062 10.8687C22.05 10.9226 21.9633 10.9859 21.8437 11C21.6023 11.0281 21.3843 10.9507 21.3 10.7187C20.4422 8.42417 19.7718 7.21245 18.6562 6.6312C17.5406 6.04995 16.2961 6.19995 14.3437 6.19995H9.65623C7.70388 6.19995 6.45935 6.04995 5.34373 6.6312C4.23279 7.21011 3.57185 8.42417 2.71873 10.7C2.71638 10.707 2.70232 10.6929 2.69998 10.7C2.69763 10.707 2.70232 10.7117 2.69998 10.7187C2.59216 10.946 2.36013 11.0257 2.13748 11C2.02263 10.9859 1.92654 10.939 1.87498 10.8875C1.82341 10.8359 1.79998 10.7773 1.79998 10.6437C1.79998 9.79761 1.87498 7.44448 3.03748 5.3562C4.19998 3.26792 6.37263 1.39995 10.9687 1.39995ZM9.39373 9.8187C8.85232 9.90073 8.39998 10.3671 8.39998 10.9437V14.0937C8.39998 14.4664 8.61794 14.7734 8.84997 14.9749C9.08201 15.1765 9.35857 15.3078 9.67498 15.425C10.3101 15.6617 11.107 15.8 12 15.8C12.8929 15.8 13.6898 15.6617 14.325 15.425C14.6414 15.3078 14.9179 15.1765 15.15 14.9749C15.382 14.7734 15.6 14.4664 15.6 14.0937V10.9437C15.6 10.175 14.782 9.59839 14.0437 9.87495H14.025C13.5633 10.0671 12.7922 10.25 12 10.25C11.2078 10.25 10.4367 10.0671 9.97497 9.87495H9.95623C9.77107 9.80464 9.57419 9.79058 9.39373 9.8187ZM9.59997 11C10.2375 11.2531 11.0742 11.45 12 11.45C12.9258 11.45 13.7625 11.2531 14.4 11V14.0375C14.4 14.0351 14.3976 14.0445 14.3625 14.075C14.2922 14.1359 14.1375 14.2156 13.9125 14.3C13.4625 14.4664 12.7687 14.6 12 14.6C11.2312 14.6 10.5375 14.4664 10.0875 14.3C9.86248 14.2156 9.70779 14.1359 9.63748 14.075C9.60232 14.0445 9.59997 14.0351 9.59997 14.0375V11Z" fill="black"/>
</svg>
