<svg width="17" height="28" viewBox="0 0 17 28" fill="none" xmlns="http://www.w3.org/2000/svg">
<path d="M8.49998 0.199997C3.86873 0.199997 0.0999756 3.96875 0.0999756 8.6C0.0999756 13.0297 3.54529 16.6742 7.89998 16.9812V21.2H3.09998V22.4H7.89998V27.2H9.09997V22.4H13.9V21.2H9.09997V16.9812C13.4547 16.6742 16.9 13.0297 16.9 8.6C16.9 3.96875 13.1312 0.199997 8.49998 0.199997ZM8.49998 1.4C12.4844 1.4 15.7 4.61562 15.7 8.6C15.7 12.5844 12.4844 15.8 8.49998 15.8C4.5156 15.8 1.29998 12.5844 1.29998 8.6C1.29998 4.61562 4.5156 1.4 8.49998 1.4Z" fill="black"/>
</svg>
