<svg width="30" height="21" viewBox="0 0 30 21" fill="none" xmlns="http://www.w3.org/2000/svg">
<path d="M6.29995 0.399902C6.07963 0.399902 5.74682 0.500684 5.51245 0.699902C5.27807 0.899121 5.09292 1.16397 4.83745 1.58115C4.64292 1.89756 4.3312 2.57256 3.86245 3.56865C3.3937 4.56475 2.81245 5.80928 2.24995 7.0374C1.12495 9.49131 0.0561965 11.8562 0.0561965 11.8562C-0.0492723 12.0343 -0.0563035 12.2522 0.0374465 12.4374C0.042134 12.4491 0.0491653 12.4632 0.0561965 12.4749C0.0890093 12.5851 0.126509 12.6812 0.187447 12.7562C0.297603 12.8897 0.417134 12.953 0.506196 12.9999C0.686665 13.096 0.813228 13.1358 0.899947 13.1874C1.07338 13.2929 1.19995 13.3163 1.19995 14.0124C1.19995 15.414 1.59838 16.9655 2.6812 18.1749C3.76401 19.3843 5.51948 20.1999 8.0437 20.1999C10.0898 20.1999 11.6132 19.5319 12.5437 18.3249C13.4742 17.1179 13.7999 15.4726 13.7999 13.5999V12.1374C14.0109 12.0038 14.3835 11.7999 14.9999 11.7999C15.6164 11.7999 15.989 12.0038 16.1999 12.1374V13.5999C16.1999 15.4726 16.5257 17.1179 17.4562 18.3249C18.3867 19.5319 19.9101 20.1999 21.9562 20.1999C24.4804 20.1999 26.2359 19.3937 27.3187 18.1937C28.4015 16.9937 28.7999 15.4608 28.7999 14.0874C28.7999 13.3562 28.9359 13.3187 29.0999 13.2249C29.182 13.178 29.2945 13.1452 29.4749 13.0562C29.5664 13.0116 29.6765 12.946 29.7937 12.8124C29.8828 12.7093 29.9507 12.564 29.9812 12.4187C30.0632 12.2358 30.0492 12.0249 29.9437 11.8562C29.9437 11.8562 28.8749 9.49131 27.7499 7.0374C27.1874 5.80928 26.6062 4.56475 26.1374 3.56865C25.6687 2.57256 25.357 1.89756 25.1624 1.58115C24.907 1.16397 24.7218 0.899121 24.4874 0.699902C24.2531 0.500684 23.9203 0.399902 23.6999 0.399902C23.4304 0.399902 23.1281 0.526465 22.9124 0.718652C22.6968 0.91084 22.5187 1.171 22.2937 1.5249C21.9398 2.11553 21.6937 2.4624 21.6937 2.4624C21.5062 2.74131 21.5835 3.11865 21.8624 3.30615C22.1414 3.49365 22.5187 3.41631 22.7062 3.1374C22.7062 3.1374 22.9476 2.75771 23.3062 2.1624C23.3109 2.15303 23.3015 2.15303 23.3062 2.14365C23.4867 1.86006 23.6296 1.70537 23.6999 1.6374C23.7679 1.696 23.9296 1.8624 24.1499 2.21865C24.1945 2.29131 24.6023 3.08584 25.0687 4.0749C25.5351 5.06396 26.0999 6.31787 26.6624 7.54365C27.4921 9.35068 27.9117 10.2929 28.2749 11.0874C28.1039 11.0499 27.9515 11.0101 27.7499 10.9749C26.4796 10.7546 24.5648 10.5999 21.8437 10.5999C20.0789 10.5999 18.2835 10.996 16.9124 11.1812C16.6312 10.9843 16.0195 10.5999 14.9999 10.5999C13.9804 10.5999 13.3687 10.9843 13.0874 11.1812C11.7164 10.996 9.92104 10.5999 8.1562 10.5999C5.4351 10.5999 3.51792 10.7452 2.24995 10.9562C2.04838 10.989 1.8937 11.0312 1.72495 11.0687C2.09057 10.2694 2.51245 9.34365 3.33745 7.54365C3.89995 6.31787 4.46479 5.06396 4.9312 4.0749C5.3976 3.08584 5.80542 2.29131 5.84995 2.21865V2.1999C6.06323 1.85772 6.23432 1.696 6.29995 1.6374C6.37026 1.70537 6.51323 1.86006 6.6937 2.14365C6.69838 2.15303 6.68901 2.15303 6.6937 2.1624C7.05229 2.75771 7.2937 3.1374 7.2937 3.1374C7.4812 3.41631 7.85854 3.49365 8.13745 3.30615C8.41635 3.11865 8.4937 2.74131 8.3062 2.4624C8.3062 2.4624 8.0601 2.11553 7.7062 1.5249C7.4812 1.171 7.30307 0.91084 7.08745 0.718652C6.87182 0.526465 6.56948 0.399902 6.29995 0.399902ZM8.1562 11.7999C9.62573 11.7999 11.2078 12.1421 12.5999 12.3437V13.5999C12.5999 15.3272 12.2765 16.6819 11.5874 17.5749C10.8984 18.4679 9.83901 18.9999 8.0437 18.9999C5.76792 18.9999 4.39917 18.3038 3.56245 17.3687C2.72573 16.4335 2.39995 15.1913 2.39995 14.0124C2.39995 13.1593 2.03901 12.6319 1.6687 12.3249C1.89604 12.2616 2.0812 12.2007 2.4562 12.1374C3.6187 11.9429 5.47729 11.7999 8.1562 11.7999ZM21.8437 11.7999C24.5226 11.7999 26.3835 11.9569 27.5437 12.1562C27.9328 12.2241 28.1226 12.2921 28.3499 12.3624C27.9679 12.6647 27.5999 13.2062 27.5999 14.0874C27.5999 15.2335 27.2742 16.4593 26.4374 17.3874C25.6007 18.3155 24.232 18.9999 21.9562 18.9999C20.1609 18.9999 19.1015 18.4679 18.4124 17.5749C17.7234 16.6819 17.3999 15.3272 17.3999 13.5999V12.3437C18.7921 12.1421 20.3742 11.7999 21.8437 11.7999Z" fill="black"/>
</svg>
