<svg width="31" height="30" viewBox="0 0 31 30" fill="none" xmlns="http://www.w3.org/2000/svg">
<path d="M15.5 0.600006C11.8695 0.600006 9.36404 2.0086 7.71873 4.12501C6.07342 6.24141 5.25545 9.01172 4.68123 11.8125C4.10701 14.6133 3.77888 17.4656 3.25623 19.725C2.73357 21.9844 2.00701 23.5453 0.856229 24.0563C0.685135 24.1336 0.558572 24.2883 0.518729 24.4734C0.478885 24.6586 0.52576 24.8508 0.649979 24.9938C0.649979 24.9938 1.61795 26.0813 3.03123 27.1688C4.44451 28.2563 6.31951 29.4 8.29998 29.4C9.04998 29.4 9.79998 29.2266 10.3812 28.725C10.9625 28.2234 11.3 27.4195 11.3 26.4C11.3 23.4797 10.7961 19.9195 10.55 16.8563C10.4281 15.3258 10.3672 13.9125 10.4562 12.8063C10.5312 11.8711 10.7539 11.2547 11 10.875C11.5578 11.0086 13.2781 11.4 15.5 11.4C17.7219 11.4 19.4422 11.0086 20 10.875C20.2461 11.2547 20.4687 11.8711 20.5437 12.8063C20.6328 13.9125 20.5719 15.3258 20.45 16.8563C20.2039 19.9195 19.7 23.4797 19.7 26.4C19.7 27.4195 20.0375 28.2234 20.6187 28.725C21.2 29.2266 21.95 29.4 22.7 29.4C24.6804 29.4 26.5554 28.2563 27.9687 27.1688C29.382 26.0813 30.35 24.9938 30.35 24.9938C30.4742 24.8508 30.5211 24.6586 30.4812 24.4734C30.4414 24.2883 30.3148 24.1336 30.1437 24.0563C29.0187 23.5781 28.3789 22.2281 27.9875 20.25C27.5961 18.2719 27.4719 15.7594 27.2 13.2563C26.9281 10.7531 26.5109 8.26172 25.4375 6.24376C24.3945 4.27969 22.6203 2.81485 19.9625 2.45626C19.6953 2.13751 18.3336 0.600006 15.5 0.600006ZM15.5 1.80001C18.1297 1.80001 19.2125 3.35626 19.2125 3.35626C19.3133 3.49688 19.4726 3.5836 19.6437 3.60001C22.0789 3.86485 23.4312 5.04376 24.3687 6.80626C25.3062 8.56876 25.7328 10.9336 26 13.3875C26.2672 15.8414 26.3867 18.375 26.8062 20.4938C27.1578 22.268 27.7695 23.7891 28.9437 24.675C28.6461 24.9914 28.25 25.4508 27.2375 26.2313C25.9203 27.2438 24.1976 28.2 22.7 28.2C22.1304 28.2 21.6758 28.0734 21.3875 27.825C21.0992 27.5766 20.9 27.1805 20.9 26.4C20.9 23.6203 21.3804 20.0672 21.6312 16.95C21.7554 15.3914 21.8234 13.9383 21.725 12.7125C21.6265 11.4867 21.4133 10.4508 20.7312 9.76876C20.5789 9.61876 20.3562 9.56016 20.15 9.61876C20.15 9.61876 17.9258 10.2 15.5 10.2C13.0742 10.2 10.85 9.61876 10.85 9.61876C10.6437 9.56016 10.4211 9.61876 10.2687 9.76876C9.5867 10.4508 9.37342 11.4867 9.27498 12.7125C9.17654 13.9383 9.24451 15.3914 9.36873 16.95C9.61951 20.0672 10.1 23.6203 10.1 26.4C10.1 27.1805 9.90076 27.5766 9.61248 27.825C9.3242 28.0734 8.86951 28.2 8.29998 28.2C6.80232 28.2 5.07967 27.2438 3.76248 26.2313C2.73826 25.4438 2.3281 24.9656 2.03748 24.6563C3.29373 23.6953 3.97342 21.9984 4.43748 19.9875C4.98592 17.618 5.28592 14.7844 5.84373 12.0563C6.40154 9.32813 7.2242 6.72423 8.67498 4.85626C10.1258 2.98829 12.1695 1.80001 15.5 1.80001Z" fill="black"/>
</svg>
