<svg width="24" height="30" viewBox="0 0 24 30" fill="none" xmlns="http://www.w3.org/2000/svg">
<path d="M1.44375 2.74983e-05C1.23984 0.0375275 1.06875 0.180496 0.99375 0.375027C0.35625 1.99456 0 3.78518 0 5.66253C0 11.2828 3.17578 16.1203 7.6875 18.0375C7.73906 18.0774 7.79531 18.1102 7.85625 18.1313C8.29922 18.3047 8.93438 18.6024 9.4125 19.0125C9.89062 19.4227 10.2 19.8867 10.2 20.4938V24.975C10.2 25.2071 9.95625 25.561 9.375 25.95C8.79375 26.3391 7.96406 26.7117 7.1625 27.0563C6.36094 27.4008 5.5875 27.7078 5.025 28.05C4.74375 28.2211 4.48359 28.3758 4.3125 28.725C4.22813 28.8985 4.19063 29.1446 4.25625 29.3625C4.32188 29.5805 4.46953 29.7516 4.6125 29.8688C4.71797 29.9531 4.85156 30 4.9875 30H19.0125C19.1484 30 19.282 29.9531 19.3875 29.8688C19.5328 29.7539 19.6758 29.6016 19.7438 29.3813C19.8117 29.161 19.7742 28.8985 19.6875 28.725C19.5141 28.3782 19.2563 28.2375 18.975 28.0688C18.4148 27.7289 17.6391 27.4219 16.8375 27.075C16.0359 26.7282 15.2063 26.3414 14.625 25.95C14.0438 25.5586 13.8 25.2071 13.8 24.975V20.4938C13.8 19.8891 14.1141 19.4203 14.5875 19.0125C15.0609 18.6047 15.6797 18.3047 16.125 18.1313C16.1648 18.1172 16.2023 18.0985 16.2375 18.075C20.3273 16.3711 23.3391 12.2649 23.9062 7.35003C23.9062 7.33128 23.9062 7.31253 23.9062 7.29378C23.9672 6.75706 24 6.21565 24 5.66253C24 3.78518 23.6438 1.99456 23.0063 0.375027C22.9148 0.14534 22.6898 -0.00231625 22.4438 2.74983e-05H1.55625C1.5375 2.74983e-05 1.51875 2.74983e-05 1.5 2.74983e-05C1.48125 2.74983e-05 1.4625 2.74983e-05 1.44375 2.74983e-05ZM2.00625 1.20003H21.9938C22.493 2.58518 22.8 4.07815 22.8 5.66253C22.8 5.993 22.7859 6.31409 22.7625 6.63753H1.2375C1.21406 6.31409 1.2 5.993 1.2 5.66253C1.2 4.07815 1.50703 2.58518 2.00625 1.20003ZM1.3875 7.83753H22.6125C21.6914 13.4813 17.2758 17.7188 12 17.7188C6.72422 17.7188 2.30859 13.4813 1.3875 7.83753ZM13.1438 18.8438C12.8227 19.3032 12.6 19.8492 12.6 20.4938V24.975C12.6 25.8516 13.2352 26.4633 13.95 26.9438C14.6648 27.4242 15.5531 27.811 16.3688 28.1625C16.9383 28.4086 17.3414 28.6008 17.7563 28.8H6.24375C6.65859 28.6008 7.06172 28.4063 7.63125 28.1625C8.44688 27.8133 9.31641 27.4219 10.0312 26.9438C10.7461 26.4657 11.4 25.8516 11.4 24.975V20.4938C11.4 19.8633 11.1867 19.3196 10.875 18.8625C11.243 18.9 11.6227 18.9188 12 18.9188C12.3844 18.9188 12.7688 18.8836 13.1438 18.8438Z" fill="black"/>
</svg>
