<svg width="15" height="28" viewBox="0 0 15 28" fill="none" xmlns="http://www.w3.org/2000/svg">
<path d="M4.94764 0.0171814L2.01796 0.994525L2.63671 4.46796C2.44218 4.57109 2.33436 4.60156 2.02968 4.84062C1.51405 5.24609 0.899988 5.87656 0.899988 6.78124C0.899988 7.79374 1.43905 8.60937 1.88671 9.34531C2.33671 10.0812 2.69999 10.7352 2.69999 11.3C2.69999 11.7102 2.59921 11.982 2.40702 12.3125C2.21249 12.6453 1.91483 13.018 1.59608 13.5102C0.956238 14.4969 0.299988 15.957 0.299988 18.5586C0.299988 21.9359 1.51874 26.7453 1.51874 26.7453L1.60311 27.0875L1.94296 27.1789C1.94296 27.1789 4.19764 27.7883 7.49999 27.7883C10.8023 27.7883 13.057 27.1789 13.057 27.1789L13.3969 27.0875L13.4812 26.7453C13.4812 26.7453 14.7 21.9359 14.7 18.5586C14.7 15.957 14.0437 14.4969 13.4039 13.5102C13.0851 13.018 12.7875 12.6453 12.593 12.3125C12.4008 11.982 12.3 11.7102 12.3 11.3C12.3 10.7352 12.6633 10.0812 13.1133 9.34531C13.5609 8.60937 14.1 7.79374 14.1 6.78124C14.1 5.87656 13.4859 5.24609 12.9703 4.84062C12.6656 4.60156 12.5578 4.57109 12.3633 4.46796L12.982 0.994525L10.0523 0.0171814L9.91171 0.673431C9.51093 2.56015 7.88671 3.47656 7.49999 3.68281C7.11327 3.47656 5.48905 2.56015 5.08827 0.673431L4.94764 0.0171814ZM4.17421 1.54062C5.0203 3.85624 7.24686 4.94374 7.24686 4.94374L7.49999 5.06093L7.75311 4.94374C7.75311 4.94374 9.97968 3.85624 10.8258 1.54062L11.618 1.80546L11.0273 5.11718L11.4562 5.30937C11.4562 5.30937 11.8453 5.48515 12.2297 5.78515C12.6141 6.08515 12.9 6.46718 12.9 6.78124C12.9 7.33203 12.5391 7.98124 12.0867 8.71953C11.6367 9.45781 11.1 10.2805 11.1 11.3C11.1 11.9398 11.2992 12.4719 11.557 12.9148C11.8125 13.3602 12.1148 13.7305 12.3961 14.1617C12.9562 15.0289 13.5 16.1469 13.5 18.5586C13.5 21.4391 12.5297 25.5289 12.3937 26.0914C11.9648 26.1969 10.2726 26.5883 7.49999 26.5883C4.72733 26.5883 3.03514 26.1969 2.60624 26.0914C2.4703 25.5289 1.49999 21.4391 1.49999 18.5586C1.49999 16.1469 2.04374 15.0289 2.60389 14.1617C2.88514 13.7305 3.18749 13.3602 3.44296 12.9148C3.70077 12.4719 3.89999 11.9398 3.89999 11.3C3.89999 10.2805 3.36327 9.45781 2.91327 8.71953C2.46093 7.98124 2.09999 7.33203 2.09999 6.78124C2.09999 6.46718 2.38593 6.08515 2.7703 5.78515C3.15468 5.48515 3.54374 5.30937 3.54374 5.30937L3.97264 5.11718L3.38202 1.80546L4.17421 1.54062Z" fill="black"/>
</svg>
