<svg width="6" height="16" viewBox="0 0 6 16" fill="#000" xmlns="http://www.w3.org/2000/svg">
<path clip-rule="evenodd" d="M0.5 2.24001C0.5 1.36001 1.22 0.640015 2.1 0.640015C2.98 0.640015 3.7 1.36001 3.7 2.24001C3.7 3.12001 2.98 3.84001 2.1 3.84001C1.22 3.84001 0.5 3.12001 0.5 2.24001ZM3.06 2.24001C3.06 1.70626 2.63375 1.28001 2.1 1.28001C1.56625 1.28001 1.14 1.70626 1.14 2.24001C1.14 2.77376 1.56625 3.20001 2.1 3.20001C2.63375 3.20001 3.06 2.77376 3.06 2.24001Z" />
<path d="M0.938022 4.37853C1.29842 4.23748 1.69038 4.16001 2.1 4.16001C3.86375 4.16001 5.3 5.59626 5.3 7.36001V10.4563L4.17375 10.9063L3.94 15.36H0.803899L0.825806 14.72H3.3325L3.55625 10.465L4.66 10.0238V7.36001C4.66 5.94251 3.5175 4.80001 2.1 4.80001C1.85241 4.80001 1.6132 4.83487 1.38701 4.89996C1.24837 4.70921 1.09702 4.53482 0.938022 4.37853Z"/>
</svg>
