<svg width="5" height="16" viewBox="0 0 5 16" fill="#000000" xmlns="http://www.w3.org/2000/svg">
<path clip-rule="evenodd" d="M4.8999 2.24001C4.8999 1.36001 4.1799 0.640015 3.2999 0.640015C2.4199 0.640015 1.6999 1.36001 1.6999 2.24001C1.6999 3.12001 2.4199 3.84001 3.2999 3.84001C4.1799 3.84001 4.8999 3.12001 4.8999 2.24001ZM2.3399 2.24001C2.3399 1.70626 2.76615 1.28001 3.2999 1.28001C3.83365 1.28001 4.2599 1.70626 4.2599 2.24001C4.2599 2.77376 3.83365 3.20001 3.2999 3.20001C2.76615 3.20001 2.3399 2.77376 2.3399 2.24001Z"/>
<path d="M4.46188 4.37853C4.10148 4.23748 3.70952 4.16001 3.2999 4.16001C1.53615 4.16001 0.0999031 5.59626 0.0999031 7.36001V10.4563L1.22615 10.9063L1.4599 15.36H4.596L4.5741 14.72H2.0674L1.84365 10.465L0.739902 10.0238V7.36001C0.739902 5.94251 1.8824 4.80001 3.2999 4.80001C3.5475 4.80001 3.7867 4.83487 4.01289 4.89996C4.15153 4.70921 4.30289 4.53482 4.46188 4.37853Z" />
</svg>
