<svg width="29" height="28" viewBox="0 0 29 28" fill="none" xmlns="http://www.w3.org/2000/svg">
<path d="M5.39998 0.800049C4.11391 0.800049 3.03386 1.82903 2.15623 2.92935C1.71741 3.4795 1.34063 4.06781 1.06521 4.62505C0.789788 5.18229 0.599976 5.68762 0.599976 6.20005C0.599976 7.11544 1.15797 7.86827 1.84451 8.37856C2.35577 8.75859 2.95416 9.0274 3.56716 9.14028C2.85637 10.0828 2.39998 11.2299 2.39998 12.5C2.39998 15.6408 4.95925 18.2001 8.09998 18.2001H11.6215C11.5616 18.3431 11.5016 18.4864 11.4422 18.6606C11.1242 19.5917 10.8145 21.0082 10.8 22.9954C10.7992 23.1032 10.8276 23.2093 10.882 23.3024C10.882 23.3024 11.4948 24.3314 12.9 25.2946C14.3052 26.2578 16.5374 27.2001 19.8 27.2001C23.0625 27.2001 25.2948 26.2578 26.7 25.2946C28.1052 24.3314 28.7179 23.3024 28.7179 23.3024C28.7724 23.2093 28.8007 23.1032 28.8 22.9954C28.7854 21.0082 28.4757 19.5917 28.1578 18.6606C27.9328 18.0016 27.8011 17.8543 27.6761 17.654C27.745 17.5567 27.7644 17.5629 27.8367 17.4184C28.0225 17.0469 28.2 16.5 28.2 15.8C28.2 13.4715 26.8687 11.825 26.8687 11.825C26.8122 11.7545 26.7405 11.6976 26.6589 11.6586C26.5774 11.6197 26.488 11.5996 26.3976 11.6C26.2622 11.6005 26.1308 11.6467 26.025 11.7313L23.2711 13.9344C22.8492 13.7763 21.7383 13.4 19.8 13.4C19.0677 13.4 18.4385 13.4628 17.8992 13.5465C17.9628 13.2066 18 12.858 18 12.5C18 11.2299 17.5436 10.0828 16.8328 9.14028C17.4458 9.0274 18.0442 8.75859 18.5554 8.37856C19.242 7.86827 19.8 7.11544 19.8 6.20005C19.8 5.68762 19.6102 5.18229 19.3347 4.62505C19.0593 4.06781 18.6825 3.4795 18.2437 2.92935C17.3661 1.82903 16.286 0.800049 15 0.800049C14.3152 0.800049 13.6956 1.09209 13.2574 1.55591C12.3424 1.07506 11.303 0.800049 10.2 0.800049C9.09695 0.800049 8.05757 1.07506 7.14255 1.55591C6.70436 1.09209 6.08476 0.800049 5.39998 0.800049ZM5.39998 2.00005C5.66674 2.00005 5.90465 2.09247 6.10193 2.23677C4.58044 3.44712 3.59998 5.3102 3.59998 7.40005C3.59998 7.5746 3.61412 7.74494 3.63279 7.91333C3.26174 7.81803 2.87478 7.64887 2.56052 7.41528C2.07841 7.05693 1.79998 6.61006 1.79998 6.20005C1.79998 6.04978 1.91016 5.6241 2.14099 5.15708C2.37182 4.69006 2.70754 4.16117 3.09373 3.677C3.86609 2.70867 4.88604 2.00005 5.39998 2.00005ZM10.2 2.00005C13.1895 2.00005 15.6 4.41049 15.6 7.40005C15.6 7.88892 15.5288 8.36273 15.4043 8.82153C15.3772 8.9213 15.3763 9.02637 15.4018 9.12657C15.4272 9.22676 15.4782 9.31868 15.5496 9.39341C16.3236 10.203 16.8 11.291 16.8 12.5C16.8 14.9921 14.792 17 12.3 17H10.8V14.4922C11.2877 14.3159 11.6634 13.9483 11.9426 13.5981C12.1348 13.357 12.2851 13.1112 12.3961 12.8868C12.507 12.6623 12.6 12.5261 12.6 12.2C12.6 11.874 12.4042 11.6333 12.2297 11.4958C12.0551 11.3582 11.8688 11.2751 11.6625 11.2063C11.2499 11.0687 10.7512 11 10.2 11C9.6488 11 9.15005 11.0687 8.73748 11.2063C8.53119 11.2751 8.3448 11.3582 8.17029 11.4958C7.99577 11.6333 7.79998 11.874 7.79998 12.2C7.79998 12.5261 7.89294 12.6623 8.00388 12.8868C8.11483 13.1112 8.26519 13.357 8.4574 13.5981C8.73654 13.9483 9.1122 14.3159 9.59998 14.4922V17H8.09998C5.6079 17 3.59998 14.9921 3.59998 12.5C3.59998 11.291 4.07636 10.203 4.85037 9.39341C4.9218 9.31868 4.97271 9.22676 4.99817 9.12657C5.02363 9.02637 5.02277 8.9213 4.99568 8.82153C4.87115 8.36273 4.79998 7.88892 4.79998 7.40005C4.79998 4.41049 7.21042 2.00005 10.2 2.00005ZM15 2.00005C15.5139 2.00005 16.5339 2.70867 17.3062 3.677C17.6924 4.16117 18.0281 4.69006 18.259 5.15708C18.4898 5.6241 18.6 6.04978 18.6 6.20005C18.6 6.61006 18.3215 7.05693 17.8394 7.41528C17.5252 7.64887 17.1382 7.81803 16.7672 7.91333C16.7858 7.74494 16.8 7.5746 16.8 7.40005C16.8 5.3102 15.8195 3.44712 14.298 2.23677C14.4953 2.09247 14.7332 2.00005 15 2.00005ZM8.09998 8.00005C7.86128 8.00005 7.63236 8.09487 7.46358 8.26365C7.2948 8.43244 7.19998 8.66135 7.19998 8.90005C7.19998 9.13874 7.2948 9.36766 7.46358 9.53644C7.63236 9.70523 7.86128 9.80005 8.09998 9.80005C8.33867 9.80005 8.56759 9.70523 8.73637 9.53644C8.90516 9.36766 8.99998 9.13874 8.99998 8.90005C8.99998 8.66135 8.90516 8.43244 8.73637 8.26365C8.56759 8.09487 8.33867 8.00005 8.09998 8.00005ZM12.3 8.00005C12.0613 8.00005 11.8324 8.09487 11.6636 8.26365C11.4948 8.43244 11.4 8.66135 11.4 8.90005C11.4 9.13874 11.4948 9.36766 11.6636 9.53644C11.8324 9.70523 12.0613 9.80005 12.3 9.80005C12.5387 9.80005 12.7676 9.70523 12.9364 9.53644C13.1052 9.36766 13.2 9.13874 13.2 8.90005C13.2 8.66135 13.1052 8.43244 12.9364 8.26365C12.7676 8.09487 12.5387 8.00005 12.3 8.00005ZM10.2 12.2C10.643 12.2 11.0439 12.2657 11.2828 12.3454C11.3027 12.352 11.2994 12.3538 11.3168 12.3606C11.2454 12.5039 11.1359 12.6849 11.0039 12.8504C10.7368 13.1854 10.4016 13.4 10.2 13.4C9.99835 13.4 9.66311 13.1854 9.39607 12.8504C9.2641 12.6849 9.1545 12.5039 9.08318 12.3606C9.10057 12.3538 9.0973 12.352 9.11716 12.3454C9.35604 12.2657 9.75695 12.2 10.2 12.2ZM26.2383 13.0977C26.5501 13.6027 27 14.4659 27 15.8C27 16.3 26.8775 16.6532 26.7633 16.8817C26.649 17.1101 26.5758 17.1758 26.5758 17.1758C26.4734 17.2783 26.4115 17.4144 26.4016 17.5589C26.3917 17.7034 26.4344 17.8467 26.5219 17.9622C26.5219 17.9622 26.7461 18.2431 27.0211 19.0485C27.2856 19.8233 27.553 21.0709 27.5859 22.8243C27.4822 22.9874 27.0846 23.5768 26.0215 24.3055C24.8007 25.1423 22.8338 26 19.8 26C16.7661 26 14.7992 25.1423 13.5785 24.3055C12.5154 23.5768 12.1178 22.9874 12.014 22.8243C12.0469 21.0709 12.3143 19.8233 12.5789 19.0485C12.7417 18.5715 12.8674 18.3187 12.9586 18.159C14.98 17.9245 16.6807 16.6267 17.4902 14.8415C18.0584 14.7162 18.8316 14.6 19.8 14.6C21.9527 14.6 23.1551 15.1473 23.1551 15.1473C23.2556 15.1924 23.3667 15.209 23.476 15.1951C23.5854 15.1813 23.6888 15.1376 23.775 15.0688L26.2383 13.0977ZM17.7 18.8C17.4613 18.8 17.2324 18.8949 17.0636 19.0637C16.8948 19.2324 16.8 19.4614 16.8 19.7001C16.8 19.9387 16.8948 20.1677 17.0636 20.3364C17.2324 20.5052 17.4613 20.6 17.7 20.6C17.9387 20.6 18.1676 20.5052 18.3364 20.3364C18.5052 20.1677 18.6 19.9387 18.6 19.7001C18.6 19.4614 18.5052 19.2324 18.3364 19.0637C18.1676 18.8949 17.9387 18.8 17.7 18.8ZM21.9 18.8C21.6613 18.8 21.4324 18.8949 21.2636 19.0637C21.0948 19.2324 21 19.4614 21 19.7001C21 19.9387 21.0948 20.1677 21.2636 20.3364C21.4324 20.5052 21.6613 20.6 21.9 20.6C22.1387 20.6 22.3676 20.5052 22.5364 20.3364C22.7052 20.1677 22.8 19.9387 22.8 19.7001C22.8 19.4614 22.7052 19.2324 22.5364 19.0637C22.3676 18.8949 22.1387 18.8 21.9 18.8ZM19.8 21.2001C18.8058 21.2001 18 21.4688 18 21.8C18 22.0074 18.4701 22.6612 18.9691 23.1208C18.7533 23.3529 18.4301 23.6 18 23.6V24.8C18.8442 24.8 19.4179 24.3943 19.8 23.9915C20.1821 24.3943 20.7557 24.8 21.6 24.8V23.6C21.1699 23.6 20.8466 23.3529 20.6308 23.1208C21.1298 22.6612 21.6 22.0074 21.6 21.8C21.6 21.4688 20.7942 21.2001 19.8 21.2001Z" fill="black"/>
</svg>
