<svg width="31" height="30" viewBox="0 0 31 30" fill="none" xmlns="http://www.w3.org/2000/svg">
<path d="M25.7625 4.00041C25.5703 4.00744 25.3922 4.10588 25.2844 4.26526C25.1766 4.42463 25.1531 4.62619 25.2187 4.80666C25.357 5.45588 25.4578 6.17307 25.5 6.88791L25.5375 7.45041H26.1C26.6344 7.45041 27.0703 7.61213 27.375 7.90041C27.6797 8.18869 27.9 8.64338 27.9 9.45666C27.9 10.2887 27.6797 11.0059 27.3562 11.4817C27.0328 11.9574 26.6461 12.1942 26.175 12.1942H25.6312L25.575 12.7379C25.2492 16.3168 23.5125 19.4246 21.4125 21.6254C19.3125 23.8262 16.8187 25.0754 15.3 25.0754C13.7812 25.0754 11.2875 23.8285 9.1875 21.6254C7.0875 19.4223 5.34844 16.3192 5.025 12.7379L4.96875 12.1942H4.425C4.14375 12.1942 3.70078 11.9621 3.3375 11.4817C2.97422 11.0012 2.7 10.2981 2.7 9.45666C2.7 8.59416 2.92031 8.13479 3.20625 7.86291C3.49219 7.59104 3.91406 7.45041 4.5 7.45041H5.0625L5.1 6.88791C5.14453 6.15432 5.23828 5.46526 5.38125 4.80666C5.42812 4.60979 5.37422 4.39885 5.23359 4.25119C5.09297 4.10354 4.88672 4.03791 4.6875 4.07541C4.45078 4.12229 4.26562 4.30744 4.21875 4.54416C4.09687 5.10432 4.03359 5.71135 3.975 6.32541C3.38437 6.40041 2.82187 6.58088 2.38125 7.00041C1.80937 7.54416 1.5 8.38088 1.5 9.45666C1.5 10.5535 1.85391 11.5121 2.38125 12.2129C2.78672 12.7496 3.32109 13.0848 3.9 13.2442C4.34297 16.9731 6.14297 20.1629 8.325 22.4504C10.5844 24.8199 13.1859 26.2754 15.3 26.2754C17.4141 26.2754 20.0156 24.8199 22.275 22.4504C24.457 20.1653 26.257 16.9684 26.7 13.2442C27.3609 13.0848 27.9609 12.7285 28.35 12.1567C28.8422 11.4324 29.1 10.4926 29.1 9.45666C29.1 8.40666 28.7719 7.56291 28.2 7.01916C27.7617 6.60198 27.2016 6.42854 26.625 6.34416C26.5664 5.72776 26.4984 5.09494 26.3812 4.54416C26.3508 4.22776 26.0812 3.98869 25.7625 4.00041ZM10.5 5.27541C9.50625 5.27541 8.7 6.08166 8.7 7.07541C8.7 8.06916 9.50625 8.87541 10.5 8.87541C11.4937 8.87541 12.3 8.06916 12.3 7.07541C12.3 6.08166 11.4937 5.27541 10.5 5.27541ZM20.1 5.27541C19.1062 5.27541 18.3 6.08166 18.3 7.07541C18.3 8.06916 19.1062 8.87541 20.1 8.87541C21.0937 8.87541 21.9 8.06916 21.9 7.07541C21.9 6.08166 21.0937 5.27541 20.1 5.27541Z" fill="black"/>
<path d="M17.572 15.9223C16.8806 16.0395 16.0908 16.1098 15.3595 16.1098C14.6189 16.1098 13.8361 16.0395 13.147 15.9223C12.458 15.8051 11.9048 15.6692 11.4783 15.4348C11.2626 15.3505 11.1126 15.1512 11.0962 14.9192C11.0798 14.6872 11.197 14.4669 11.3986 14.352C11.6025 14.2395 11.8509 14.2512 12.0408 14.3848C12.1673 14.4551 12.7111 14.6356 13.3345 14.7411C13.958 14.8466 14.7009 14.9098 15.3595 14.9098C16.0064 14.9098 16.74 14.8466 17.3658 14.7411C17.9916 14.6356 18.547 14.4505 18.6595 14.3848C18.9501 14.2184 19.3181 14.3192 19.4845 14.6098C19.6509 14.9005 19.5501 15.2684 19.2595 15.4348C18.8236 15.688 18.2634 15.8051 17.572 15.9223Z" fill="black"/>
</svg>
